<svg id="图层_1" data-name="图层 1" xmlns="http://www.w3.org/2000/svg" viewBox="0 0 39.34 38.07"><path d="M597.48,369.34a24.71,24.71,0,0,1,1.74-2.64,51.14,51.14,0,0,1,4.65-5.1,8.56,8.56,0,0,1,6.26-1.94c4,.21,7.37,3.74,7.79,8.07a10.14,10.14,0,0,1-1.21,6.25,31.69,31.69,0,0,1-4,5.65,56.47,56.47,0,0,1-21.22,14c-.36.14-.75.22-1.19.35a10.14,10.14,0,0,1-.69-1q-4.12-8.51-8.24-17a27.94,27.94,0,0,1-2.67-9.64,14.83,14.83,0,0,1,0-3.33c.74-5.67,4.83-8.24,10.33-6.57a8.27,8.27,0,0,1,5.37,4.44c.61,1.3,1.21,2.61,1.7,3.95S597,367.52,597.48,369.34Z" transform="translate(-578.65 -355.88)"/></svg>