<?xml version="1.0" encoding="UTF-8"?>
<svg xmlns="http://www.w3.org/2000/svg" width="80mm" height="80mm" viewBox="0 0 3000 3000">
  <metadata id="flower-export-metadata">{"templateId": "birth-flower-card", "orderId": "B1001", "exportedAt": "2026-06-12T12:00:00.000Z", "appVersion": "0.1.0"}</metadata>
  <rect width="3000" height="3000" fill="#ffffff" data-export-background="canvas"/>
  <g id="layer_flower" data-layer-name="Birth flower - Lily of the Valley" transform="translate(900 420)">
    <g data-layer-id="layer_flower" data-source-viewBox="0 0 10 10" transform="scale(120 140) translate(0 0)">
      <path d="M1 1 L9 1 L5 9 Z" />
    </g>
  </g>
  <g id="layer_customer_name" data-layer-name="Customer name" transform="translate(600 2200)">
    <path d="M 726.66 4.14 L 725.38875 3.67875 L 724.095 3.015 L 722.77875 2.14875 L 721.44 1.08 L 720.804375 0.45 L 720.2475 -0.18 L 719.769375 -0.81 L 719.37 -1.44 L 719.049375 -2.07 L 718.8075 -2.7 L 718.644375 -3.33 L 718.56 -3.96 L 718.576875 -4.5675 L 718.7175 -5.4 L 718.981875 -6.4575 L 719.37 -7.74 L 720.5175 -10.98 L 722.16 -15.12 L 722.759062 -16.062188 L 723.56625 -17.17875 L 724.581563 -18.469687 L 725.805 -19.935 L 728.87625 -23.38875 L 732.78 -27.54 L 735.4575 -29.98125 L 737.55 -31.725 L 738.376875 -32.335313 L 739.0575 -32.77125 L 739.591875 -33.032812 L 739.98 -33.12 L 740.123437 -33.080625 L 740.28375 -32.9625 L 740.655 -32.49 L 741.09375 -31.7025 L 741.6 -30.6 L 741.51 -30.45375 L 741.24 -30.195 L 740.16 -29.34 L 738.72 -27.99 L 736.56 -25.74 L 733.68 -22.59 L 730.08 -18.54 L 728.912812 -17.069063 L 727.84125 -15.62625 L 726.865312 -14.211562 L 725.985 -12.825 L 725.200312 -11.466563 L 724.51125 -10.13625 L 723.917812 -8.834062 L 723.42 -7.56 L 723.27375 -6.64875 L 723.195 -5.355 L 723.18375 -3.67875 L 723.24 -1.62 L 723.411562 -1.321875 L 723.65625 -1.0575 L 723.974062 -0.826875 L 724.365 -0.63 L 724.829062 -0.466875 L 725.36625 -0.3375 L 726.66 -0.18 L 727.533984 -0.161719 L 728.445938 -0.196875 L 730.38375 -0.4275 L 732.473437 -0.871875 L 734.715 -1.53 L 737.108437 -2.401875 L 739.65375 -3.4875 L 742.350937 -4.786875 L 745.2 -6.3 L 747.855 -8.01 L 753.3 -11.7 L 753.975 -12.285 L 755.28 -13.32 L 756.298125 -14.214375 L 757.5525 -15.4575 L 759.043125 -17.049375 L 760.77 -18.99 L 764.9325 -23.9175 L 770.04 -30.24 L 770.49 -31.005 L 771.12 -31.86 L 771.48 -32.4 L 771.93 -33.21 L 772.56 -34.74 L 773.37 -36.99 L 774.36 -39.96 L 774.54 -40.60125 L 774.72 -41.625 L 775.08 -44.82 L 775.04625 -45.61875 L 774.945 -46.575 L 774.54 -48.96 L 774.320625 -49.401562 L 774.0225 -49.82625 L 773.645625 -50.234063 L 773.19 -50.625 L 772.655625 -50.999063 L 772.0425 -51.35625 L 770.58 -52.02 L 769.935937 -52.242188 L 769.08375 -52.45875 L 766.755 -52.875 L 763.59375 -53.26875 L 759.6 -53.64 L 757.33875 -53.6175 L 755.415 -53.55 L 753.82875 -53.4375 L 752.58 -53.28 L 743.22 -51.84 L 742.89375 -51.75 L 742.275 -51.66 L 740.16 -51.48 L 739.645312 -51.46875 L 739.09125 -51.525 L 738.497813 -51.64875 L 737.865 -51.84 L 736.48125 -52.425 L 734.94 -53.28 L 734.641875 -53.631563 L 734.3775 -54.05625 L 734.146875 -54.554063 L 733.95 -55.125 L 733.6575 -56.48625 L 733.5 -58.14 L 733.66875 -58.815 L 733.995 -59.76 L 735.12 -62.46 L 737.505 -66.015 L 742.14 -72.72 L 742.725 -73.35 L 743.4 -74.16 L 744.12 -75.24 L 745.4475 -76.80375 L 747.99 -79.515 L 751.7475 -83.37375 L 756.72 -88.38 L 757.1025 -88.576875 L 757.53 -88.7175 L 758.0025 -88.801875 L 758.52 -88.83 L 759.0825 -88.801875 L 759.69 -88.7175 L 761.04 -88.38 L 761.250937 -88.21125 L 761.52375 -88.065 L 762.255 -87.84 L 763.23375 -87.705 L 764.46 -87.66 L 770.22 -88.155 L 780.66 -88.92 L 782.17875 -88.93125 L 783.675 -88.875 L 785.14875 -88.75125 L 786.6 -88.56 L 788.02875 -88.30125 L 789.435 -87.975 L 790.81875 -87.58125 L 792.18 -87.12 L 792.32625 -86.6925 L 792.405 -86.13 L 792.41625 -85.4325 L 792.36 -84.6 L 792.225 -84.5325 L 792 -84.51 L 791.28 -84.6 L 789.48 -84.96 L 789.12 -85.095 L 788.76 -85.14 L 787.41 -85.17375 L 784.98 -85.095 L 776.88 -84.6 L 774.405 -84.105 L 771.12 -83.34 L 767.025 -82.305 L 762.12 -81 L 761.712187 -80.668125 L 760.84875 -79.8525 L 757.755 -76.77 L 746.1 -64.8 L 744.7725 -63.225 L 743.31 -61.38 L 741.7125 -59.265 L 739.98 -56.88 L 740.053125 -56.759062 L 740.2725 -56.66625 L 741.15 -56.565 L 742.6125 -56.57625 L 744.66 -56.7 L 748.828125 -57.29625 L 752.6925 -57.735 L 756.253125 -58.01625 L 759.51 -58.14 L 762.463125 -58.10625 L 765.1125 -57.915 L 766.323281 -57.760312 L 767.458125 -57.56625 L 768.517031 -57.332812 L 769.5 -57.06 L 770.99625 -56.446875 L 772.425 -55.6875 L 773.78625 -54.781875 L 775.08 -53.73 L 776.30625 -52.531875 L 777.465 -51.1875 L 778.55625 -49.696875 L 779.58 -48.06 L 779.85 -47.52 L 780.12 -46.8 L 780.66 -44.82 L 780.795 -44.46 L 780.84 -44.1 L 780.9975 -42.48 L 781.02 -40.86 L 780.9075 -39.24 L 780.66 -37.62 L 780.2775 -36 L 779.76 -34.38 L 779.1075 -32.76 L 778.32 -31.14 L 777.6 -29.7 L 777.15 -28.71 L 776.88 -27.9 L 776.0925 -26.71875 L 774.27 -24.255 L 767.52 -15.48 L 765.9 -13.86 L 764.535937 -12.647812 L 762.78375 -11.26125 L 760.643438 -9.700312 L 758.115 -7.965 L 755.198437 -6.055312 L 751.89375 -3.97125 L 748.200938 -1.712812 L 744.12 0.72 L 740.835 1.935 L 735.3 3.78 L 734.0175 3.9375 L 732.15 4.05 L 729.6975 4.1175 L 726.66 4.14 Z" fill="#1f2933" data-layer-id="layer_customer_name"/>
    <path d="M 789.12 -37.44 L 788.95125 -37.755 L 788.805 -38.34 L 788.68125 -39.195 L 788.58 -40.32 L 788.661563 -40.806562 L 788.90625 -41.27625 L 789.314062 -41.729062 L 789.885 -42.165 L 790.619063 -42.584063 L 791.51625 -42.98625 L 792.576563 -43.371562 L 793.8 -43.74 L 796.185 -43.79625 L 800.64 -43.785 L 815.76 -43.56 L 816.3 -43.56 L 818.775 -43.36875 L 822.06 -42.975 L 826.155 -42.37875 L 831.06 -41.58 L 831.11625 -41.23125 L 831.105 -40.725 L 830.88 -39.24 L 830.745 -39.16125 L 830.52 -39.105 L 829.8 -39.06 L 828.43875 -39.22875 L 826.155 -39.375 L 822.94875 -39.49875 L 818.82 -39.6 L 815.6025 -39.569063 L 812.43 -39.47625 L 809.3025 -39.321562 L 806.22 -39.105 L 803.1825 -38.826563 L 800.19 -38.48625 L 797.2425 -38.084063 L 794.34 -37.62 L 793.8 -37.485 L 793.26 -37.44 L 792 -37.17 L 791.1 -37.08 L 790.63875 -37.035 L 790.155 -37.08 L 789.64875 -37.215 L 789.12 -37.44 L 789.12 -37.44 Z" fill="#1f2933" data-layer-id="layer_customer_name"/>
    <path d="M 845.82 -3.06 L 845.91 -3.904453 L 846.18 -5.087813 L 846.63 -6.610078 L 847.26 -8.47125 L 849.06 -13.210312 L 851.58 -19.305 L 854.82 -26.755312 L 858.78 -35.56125 L 863.46 -45.722812 L 868.86 -57.24 L 869.58 -58.68 L 875.7 -68.58 L 881.28 -77.76 L 881.19 -77.985 L 880.92 -78.3 L 880.70625 -78.2325 L 880.335 -78.03 L 879.12 -77.22 L 877.275 -75.87 L 874.8 -73.98 L 872.37 -72.2475 L 869.04 -70.11 L 864.81 -67.5675 L 859.68 -64.62 L 859.452188 -64.695937 L 859.12875 -64.92375 L 858.195 -65.835 L 856.87875 -67.35375 L 855.18 -69.48 L 855.216563 -69.705 L 855.32625 -69.93 L 855.509063 -70.155 L 855.765 -70.38 L 856.49625 -70.83 L 857.52 -71.28 L 859.21875 -71.9325 L 860.895 -72.63 L 862.54875 -73.3725 L 864.18 -74.16 L 865.78875 -74.9925 L 867.375 -75.87 L 868.93875 -76.7925 L 870.48 -77.76 L 873 -79.38 L 889.02 -89.46 L 889.155 -89.505 L 889.2 -89.64 L 889.39125 -89.729297 L 889.605 -89.772188 L 890.1 -89.71875 L 890.685 -89.479687 L 891.36 -89.055 L 892.125 -88.444688 L 892.98 -87.64875 L 893.925 -86.667187 L 894.96 -85.5 L 894.822188 -84.9825 L 894.40875 -84.06 L 892.755 -81 L 889.99875 -76.32 L 886.14 -70.02 L 883.475156 -66.356016 L 880.880625 -62.654062 L 878.356406 -58.914141 L 875.9025 -55.13625 L 873.518906 -51.320391 L 871.205625 -47.466562 L 868.962656 -43.574766 L 866.79 -39.645 L 864.687656 -35.677266 L 862.655625 -31.671563 L 860.693906 -27.627891 L 858.8025 -23.54625 L 856.981406 -19.426641 L 855.230625 -15.269062 L 853.550156 -11.073516 L 851.94 -6.84 L 851.625 -5.86125 L 851.4 -4.905 L 851.265 -3.97125 L 851.22 -3.06 L 850.995 -1.44 L 850.68 0.18 L 850.365 0.36 L 849.78 0.54 L 849.403125 0.48375 L 848.9925 0.315 L 848.548125 0.03375 L 848.07 -0.36 L 847.558125 -0.86625 L 847.0125 -1.485 L 845.82 -3.06 Z" fill="#1f2933" data-layer-id="layer_customer_name"/>
    <path d="M 911.88 3.96 L 911.88 3.78 L 911.695781 3.654141 L 911.548125 3.456562 L 911.437031 3.187266 L 911.3625 2.84625 L 911.323125 1.949062 L 911.43 0.765 L 911.683125 -0.705937 L 912.0825 -2.46375 L 912.628125 -4.508437 L 913.32 -6.84 L 916.11 -12.78 L 920.88 -22.68 L 922.68 -26.1 L 924.3 -29.16 L 925.38 -31.14 L 926.7975 -33.705 L 927.81 -35.64 L 928.4175 -36.945 L 928.569375 -37.36125 L 928.62 -37.62 L 928.569375 -37.783125 L 928.4175 -37.9125 L 928.164375 -38.008125 L 927.81 -38.07 L 926.7975 -38.0925 L 925.38 -37.98 L 922.635 -37.1475 L 918.36 -35.73 L 905.22 -31.14 L 900.315 -28.845 L 891.36 -24.48 L 889.03125 -23.18625 L 886.725 -22.005 L 884.44125 -20.93625 L 882.18 -19.98 L 881.924062 -20.022187 L 881.60625 -20.14875 L 880.785 -20.655 L 879.71625 -21.49875 L 878.4 -22.68 L 878.439375 -22.89375 L 878.6475 -23.355 L 879.57 -25.02 L 881.1675 -27.675 L 883.44 -31.32 L 884.0925 -32.05125 L 884.97 -33.165 L 887.4 -36.54 L 887.625 -36.9 L 887.94 -37.26 L 889.29 -39.105 L 891.54 -42.48 L 891.9 -43.02 L 895.86 -48.6 L 896.985 -50.175 L 898.92 -52.74 L 900.72 -55.26 L 901.44 -56.52 L 902.43 -57.87 L 903.96 -60.12 L 904.32 -60.48 L 905.94 -62.82 L 906.435 -63.45 L 907.2 -64.62 L 907.605 -65.25 L 908.46 -66.42 L 908.505 -66.6 L 908.64 -66.78 L 909.7425 -68.13 L 910.89 -69.66 L 912.0825 -71.37 L 913.32 -73.26 L 915.795 -76.995 L 919.62 -82.44 L 920.07 -82.98 L 920.7 -83.88 L 921.78 -85.86 L 922.41 -86.805 L 923.58 -88.92 L 924.01875 -89.775 L 924.615 -90.54 L 925.36875 -91.215 L 926.28 -91.8 L 926.642812 -91.763437 L 927.01125 -91.65375 L 927.385313 -91.470937 L 927.765 -91.215 L 928.54125 -90.48375 L 929.34 -89.46 L 930.195 -88.155 L 930.52125 -87.53625 L 930.78 -86.94 L 930.97125 -86.36625 L 931.095 -85.815 L 931.15125 -85.28625 L 931.14 -84.78 L 930.105 -82.8 L 927.36 -77.94 L 927.045 -77.49 L 926.82 -76.86 L 926.46 -76.23 L 926.1 -75.78 L 925.74 -75.375 L 925.38 -74.88 L 924.975 -74.25 L 924.48 -73.8 L 924.12 -73.26 L 922.68 -71.1 L 918.9 -66.06 L 916.335 -63 L 913.32 -59.22 L 912.96 -58.69125 L 912.42 -58.005 L 910.8 -56.16 L 909.9 -55.035 L 907.92 -52.74 L 906.975 -51.48 L 905.94 -50.22 L 905.04 -49.14 L 904.365 -48.33 L 903.06 -46.98 L 901.8 -45.54 L 900.855 -44.28 L 899.82 -43.02 L 898.515 -41.4 L 897.12 -39.78 L 896.265 -38.655 L 895.5 -37.8 L 894.3075 -36.46125 L 892.89 -34.785 L 889.38 -30.42 L 889.02 -29.52 L 889.067813 -29.289375 L 889.21125 -29.1375 L 889.450312 -29.064375 L 889.785 -29.07 L 890.215312 -29.154375 L 890.74125 -29.3175 L 892.08 -29.88 L 896.22 -31.68 L 897.345 -32.13 L 898.56 -32.76 L 900.72 -33.66 L 902.835 -34.515 L 904.86 -35.28 L 912.06 -38.16 L 913.32 -38.52 L 914.58 -38.88 L 916.30125 -39.49875 L 919.485 -40.455 L 924.13125 -41.74875 L 930.24 -43.38 L 930.574687 -43.47 L 930.94875 -43.65 L 931.815 -44.28 L 932.83875 -45.27 L 934.02 -46.62 L 935.01 -48.375 L 936.9 -51.48 L 937.98 -53.37 L 940.14 -56.88 L 940.68 -57.78 L 945.18 -64.98 L 946.98 -67.5 L 947.88 -68.76 L 948.324375 -69.33375 L 948.8475 -69.795 L 949.449375 -70.14375 L 950.13 -70.38 L 950.889375 -70.50375 L 951.7275 -70.515 L 952.644375 -70.41375 L 953.64 -70.2 L 953.955 -69.879375 L 954.18 -69.4575 L 954.315 -68.934375 L 954.36 -68.31 L 954.315 -67.584375 L 954.18 -66.7575 L 953.955 -65.829375 L 953.64 -64.8 L 952.785 -63.495 L 951.3 -61.38 L 946.98 -54.72 L 945.855 -52.965 L 944.64 -50.76 L 943.335 -48.105 L 941.94 -45 L 942.31125 -44.92125 L 943.065 -44.865 L 945.72 -44.82 L 945.9 -44.82 L 946.6875 -44.775 L 947.61 -44.64 L 948.6675 -44.415 L 949.86 -44.1 L 951.12 -42.66 L 951.255 -42.12 L 951.3 -41.58 L 951.0975 -41.50125 L 950.67 -41.445 L 949.14 -41.4 L 947.745 -41.535 L 945.36 -41.58 L 944.595 -41.445 L 943.74 -41.4 L 942.3 -41.18625 L 940.86 -40.905 L 939.42 -40.55625 L 937.98 -40.14 L 937.54125 -39.6225 L 936.585 -38.25 L 933.12 -32.94 L 932.625 -32.22 L 932.22 -31.5 L 931.68 -30.6 L 931.3875 -30.195 L 930.87 -29.34 L 929.16 -26.28 L 927.99 -24.3 L 926.28 -21.24 L 923.4 -16.065 L 918.36 -6.66 L 916.75125 -3.38625 L 915.525 -0.765 L 914.68125 1.20375 L 914.22 2.52 L 914.00625 3.3075 L 913.725 3.87 L 913.559062 4.066875 L 913.37625 4.2075 L 913.176563 4.291875 L 912.96 4.32 L 912.735 4.275 L 912.42 4.14 L 912.195 4.095 L 911.88 3.96 Z" fill="#1f2933" data-layer-id="layer_customer_name"/>
    <path d="M 957.24 -37.44 L 957.07125 -37.755 L 956.925 -38.34 L 956.80125 -39.195 L 956.7 -40.32 L 956.781563 -40.806562 L 957.02625 -41.27625 L 957.434062 -41.729062 L 958.005 -42.165 L 958.739063 -42.584063 L 959.63625 -42.98625 L 960.696563 -43.371562 L 961.92 -43.74 L 964.305 -43.79625 L 968.76 -43.785 L 983.88 -43.56 L 984.42 -43.56 L 986.895 -43.36875 L 990.18 -42.975 L 994.275 -42.37875 L 999.18 -41.58 L 999.23625 -41.23125 L 999.225 -40.725 L 999 -39.24 L 998.865 -39.16125 L 998.64 -39.105 L 997.92 -39.06 L 996.55875 -39.22875 L 994.275 -39.375 L 991.06875 -39.49875 L 986.94 -39.6 L 983.7225 -39.569063 L 980.55 -39.47625 L 977.4225 -39.321562 L 974.34 -39.105 L 971.3025 -38.826563 L 968.31 -38.48625 L 965.3625 -38.084063 L 962.46 -37.62 L 961.92 -37.485 L 961.38 -37.44 L 960.12 -37.17 L 959.22 -37.08 L 958.75875 -37.035 L 958.275 -37.08 L 957.76875 -37.215 L 957.24 -37.44 L 957.24 -37.44 Z" fill="#1f2933" data-layer-id="layer_customer_name"/>
    <path d="M 1002.6 5.04 L 1002.42 4.77 L 1002.24 4.32 L 1001.925 3.96 L 1001.7 3.6 L 1000.98 2.34 L 1000.8 1.89 L 1000.62 1.62 L 1000.485 1.22625 L 1000.44 0.585 L 1000.485 -0.30375 L 1000.62 -1.44 L 1000.724063 -1.774687 L 1000.94625 -2.23875 L 1001.745 -3.555 L 1003.01625 -5.38875 L 1004.76 -7.74 L 1006.36875 -9.59625 L 1009.395 -12.825 L 1013.83875 -17.42625 L 1019.7 -23.4 L 1024.1775 -27.99 L 1029.87 -34.02 L 1036.7775 -41.49 L 1044.9 -50.4 L 1045.98 -51.66 L 1050.12 -56.16 L 1053.36 -59.76 L 1054.845 -61.425 L 1055.7 -62.46 L 1056.105 -63 L 1056.6 -63.54 L 1057.23 -64.215 L 1057.68 -64.8 L 1063.08 -71.28 L 1065.285 -74.115 L 1066.5 -75.78 L 1067.76 -77.4 L 1068.252187 -78.238125 L 1068.73875 -79.2225 L 1069.219687 -80.353125 L 1069.695 -81.63 L 1070.62875 -84.6225 L 1071.54 -88.2 L 1071.435234 -88.36875 L 1071.255938 -88.515 L 1070.67375 -88.74 L 1069.793437 -88.875 L 1068.615 -88.92 L 1067.138438 -88.875 L 1065.36375 -88.74 L 1063.290938 -88.515 L 1060.92 -88.2 L 1059.240937 -87.561562 L 1057.53375 -86.81625 L 1055.798438 -85.964062 L 1054.035 -85.005 L 1052.243438 -83.939062 L 1050.42375 -82.76625 L 1048.575938 -81.486562 L 1046.7 -80.1 L 1045.6425 -79.23375 L 1043.73 -77.535 L 1037.34 -71.64 L 1036.98 -71.28 L 1036.26 -70.425 L 1035.18 -69.3 L 1034.055 -68.13 L 1032.84 -67.14 L 1032.578438 -67.193438 L 1032.24375 -67.35375 L 1031.355 -67.995 L 1030.17375 -69.06375 L 1028.7 -70.56 L 1028.503125 -70.903125 L 1028.3625 -71.3025 L 1028.278125 -71.758125 L 1028.25 -72.27 L 1028.278125 -72.838125 L 1028.3625 -73.4625 L 1028.7 -74.88 L 1029.29625 -75.6 L 1030.365 -76.68 L 1031.90625 -78.12 L 1033.92 -79.92 L 1034.325 -80.28 L 1034.82 -80.64 L 1035.72 -81.225 L 1036.62 -81.9 L 1038.45375 -83.0475 L 1041.255 -84.69 L 1049.76 -89.46 L 1052.105625 -90.388125 L 1054.3725 -91.1925 L 1056.560625 -91.873125 L 1058.67 -92.43 L 1060.700625 -92.863125 L 1062.6525 -93.1725 L 1064.525625 -93.358125 L 1066.32 -93.42 L 1067.41125 -93.31875 L 1068.705 -93.015 L 1070.20125 -92.50875 L 1071.9 -91.8 L 1072.40625 -91.13625 L 1073.025 -90.045 L 1073.75625 -88.52625 L 1074.6 -86.58 L 1074.6225 -85.815 L 1074.51 -84.6 L 1074.2625 -82.935 L 1073.88 -80.82 L 1073.483438 -79.883437 L 1072.83375 -78.60375 L 1070.775 -75.015 L 1067.70375 -70.05375 L 1063.62 -63.72 L 1061.64 -61.38 L 1061.28 -61.02 L 1060.97625 -60.53625 L 1060.425 -59.805 L 1058.58 -57.6 L 1057.725 -56.52 L 1056.96 -55.44 L 1055.88 -54.18 L 1055.43 -53.595 L 1054.8 -52.92 L 1050.48 -47.88 L 1048.995 -46.215 L 1046.7 -43.74 L 1044.54 -41.22 L 1044.135 -40.68 L 1043.64 -40.14 L 1042.2 -38.7 L 1041.345 -37.62 L 1040.95125 -37.215 L 1040.58 -36.9 L 1038.78 -34.74 L 1038.375 -34.2 L 1037.88 -33.66 L 1036.395 -31.95 L 1033.38 -28.62 L 1030.86 -25.74 L 1027.8 -22.14 L 1026.045 -20.295 L 1024.74 -18.72 L 1024.02 -18 L 1022.265 -15.93 L 1018.08 -11.16 L 1017.135 -10.305 L 1016.46 -9.54 L 1015.9875 -8.91 L 1015.65 -8.28 L 1015.4475 -7.65 L 1015.38 -7.02 L 1019.88 -7.74 L 1022.4 -8.1 L 1026.945 -8.91 L 1033.38 -9.9 L 1035.081563 -10.049062 L 1036.94625 -10.13625 L 1038.974063 -10.161563 L 1041.165 -10.125 L 1043.519063 -10.026562 L 1046.03625 -9.86625 L 1051.56 -9.36 L 1051.734375 -9.19125 L 1051.8975 -8.955 L 1052.19 -8.28 L 1052.4375 -7.335 L 1052.64 -6.12 L 1052.38125 -5.895 L 1051.965 -5.76 L 1051.39125 -5.715 L 1050.66 -5.76 L 1050.3 -5.85 L 1049.4 -5.94 L 1045.98 -6.12 L 1043.87625 -6.0975 L 1042.065 -6.03 L 1040.54625 -5.9175 L 1039.32 -5.76 L 1034.904375 -4.9725 L 1030.5675 -4.05 L 1026.309375 -2.9925 L 1022.13 -1.8 L 1018.029375 -0.4725 L 1014.0075 0.99 L 1010.064375 2.5875 L 1006.2 4.32 L 1005.03 4.8375 L 1004.04 5.13 L 1003.6125 5.191875 L 1003.23 5.1975 L 1002.8925 5.146875 L 1002.6 5.04 Z" fill="#1f2933" data-layer-id="layer_customer_name"/>
    <path d="M 1062.18 5.04 L 1062 4.77 L 1061.82 4.32 L 1061.505 3.96 L 1061.28 3.6 L 1060.56 2.34 L 1060.38 1.89 L 1060.2 1.62 L 1060.065 1.22625 L 1060.02 0.585 L 1060.065 -0.30375 L 1060.2 -1.44 L 1060.304063 -1.774687 L 1060.52625 -2.23875 L 1061.325 -3.555 L 1062.59625 -5.38875 L 1064.34 -7.74 L 1065.94875 -9.59625 L 1068.975 -12.825 L 1073.41875 -17.42625 L 1079.28 -23.4 L 1083.7575 -27.99 L 1089.45 -34.02 L 1096.3575 -41.49 L 1104.48 -50.4 L 1105.56 -51.66 L 1109.7 -56.16 L 1112.94 -59.76 L 1114.425 -61.425 L 1115.28 -62.46 L 1115.685 -63 L 1116.18 -63.54 L 1116.81 -64.215 L 1117.26 -64.8 L 1122.66 -71.28 L 1124.865 -74.115 L 1126.08 -75.78 L 1127.34 -77.4 L 1127.832188 -78.238125 L 1128.31875 -79.2225 L 1128.799688 -80.353125 L 1129.275 -81.63 L 1130.20875 -84.6225 L 1131.12 -88.2 L 1131.015234 -88.36875 L 1130.835938 -88.515 L 1130.25375 -88.74 L 1129.373438 -88.875 L 1128.195 -88.92 L 1126.718438 -88.875 L 1124.94375 -88.74 L 1122.870938 -88.515 L 1120.5 -88.2 L 1118.820938 -87.561562 L 1117.11375 -86.81625 L 1115.378438 -85.964062 L 1113.615 -85.005 L 1111.823438 -83.939062 L 1110.00375 -82.76625 L 1108.155938 -81.486562 L 1106.28 -80.1 L 1105.2225 -79.23375 L 1103.31 -77.535 L 1096.92 -71.64 L 1096.56 -71.28 L 1095.84 -70.425 L 1094.76 -69.3 L 1093.635 -68.13 L 1092.42 -67.14 L 1092.158438 -67.193438 L 1091.82375 -67.35375 L 1090.935 -67.995 L 1089.75375 -69.06375 L 1088.28 -70.56 L 1088.083125 -70.903125 L 1087.9425 -71.3025 L 1087.858125 -71.758125 L 1087.83 -72.27 L 1087.858125 -72.838125 L 1087.9425 -73.4625 L 1088.28 -74.88 L 1088.87625 -75.6 L 1089.945 -76.68 L 1091.48625 -78.12 L 1093.5 -79.92 L 1093.905 -80.28 L 1094.4 -80.64 L 1095.3 -81.225 L 1096.2 -81.9 L 1098.03375 -83.0475 L 1100.835 -84.69 L 1109.34 -89.46 L 1111.685625 -90.388125 L 1113.9525 -91.1925 L 1116.140625 -91.873125 L 1118.25 -92.43 L 1120.280625 -92.863125 L 1122.2325 -93.1725 L 1124.105625 -93.358125 L 1125.9 -93.42 L 1126.99125 -93.31875 L 1128.285 -93.015 L 1129.78125 -92.50875 L 1131.48 -91.8 L 1131.98625 -91.13625 L 1132.605 -90.045 L 1133.33625 -88.52625 L 1134.18 -86.58 L 1134.2025 -85.815 L 1134.09 -84.6 L 1133.8425 -82.935 L 1133.46 -80.82 L 1133.063438 -79.883437 L 1132.41375 -78.60375 L 1130.355 -75.015 L 1127.28375 -70.05375 L 1123.2 -63.72 L 1121.22 -61.38 L 1120.86 -61.02 L 1120.55625 -60.53625 L 1120.005 -59.805 L 1118.16 -57.6 L 1117.305 -56.52 L 1116.54 -55.44 L 1115.46 -54.18 L 1115.01 -53.595 L 1114.38 -52.92 L 1110.06 -47.88 L 1108.575 -46.215 L 1106.28 -43.74 L 1104.12 -41.22 L 1103.715 -40.68 L 1103.22 -40.14 L 1101.78 -38.7 L 1100.925 -37.62 L 1100.53125 -37.215 L 1100.16 -36.9 L 1098.36 -34.74 L 1097.955 -34.2 L 1097.46 -33.66 L 1095.975 -31.95 L 1092.96 -28.62 L 1090.44 -25.74 L 1087.38 -22.14 L 1085.625 -20.295 L 1084.32 -18.72 L 1083.6 -18 L 1081.845 -15.93 L 1077.66 -11.16 L 1076.715 -10.305 L 1076.04 -9.54 L 1075.5675 -8.91 L 1075.23 -8.28 L 1075.0275 -7.65 L 1074.96 -7.02 L 1079.46 -7.74 L 1081.98 -8.1 L 1086.525 -8.91 L 1092.96 -9.9 L 1094.661563 -10.049062 L 1096.52625 -10.13625 L 1098.554063 -10.161563 L 1100.745 -10.125 L 1103.099063 -10.026562 L 1105.61625 -9.86625 L 1111.14 -9.36 L 1111.314375 -9.19125 L 1111.4775 -8.955 L 1111.77 -8.28 L 1112.0175 -7.335 L 1112.22 -6.12 L 1111.96125 -5.895 L 1111.545 -5.76 L 1110.97125 -5.715 L 1110.24 -5.76 L 1109.88 -5.85 L 1108.98 -5.94 L 1105.56 -6.12 L 1103.45625 -6.0975 L 1101.645 -6.03 L 1100.12625 -5.9175 L 1098.9 -5.76 L 1094.484375 -4.9725 L 1090.1475 -4.05 L 1085.889375 -2.9925 L 1081.71 -1.8 L 1077.609375 -0.4725 L 1073.5875 0.99 L 1069.644375 2.5875 L 1065.78 4.32 L 1064.61 4.8375 L 1063.62 5.13 L 1063.1925 5.191875 L 1062.81 5.1975 L 1062.4725 5.146875 L 1062.18 5.04 Z" fill="#1f2933" data-layer-id="layer_customer_name"/>
  </g>
</svg>
