<?xml version="1.0" encoding="UTF-8"?>
<svg xmlns="http://www.w3.org/2000/svg" width="80mm" height="80mm" viewBox="0 0 3000 3000">
  <metadata id="flower-export-metadata">{"templateId": "birth-flower-card", "orderId": "A1001", "exportedAt": "2026-06-12T12:00:00.000Z", "appVersion": "0.1.0"}</metadata>
  <rect width="3000" height="3000" fill="#ffffff" data-export-background="canvas"/>
  <g id="layer_flower" data-layer-name="Birth flower - hydrangea" transform="translate(900 420)">
    <g data-layer-id="layer_flower" data-source-viewBox="0 0 10 10" transform="scale(120 140) translate(0 0)">
      <path d="M0 0 L10 0 L10 10 Z" />
    </g>
  </g>
  <g id="layer_customer_name" data-layer-name="Customer name" transform="translate(600 2200)">
    <path d="M 561.96 35.1 L 561.79125 34.875 L 561.645 34.56 L 561.42 33.66 L 561.4875 33.3675 L 561.69 32.85 L 562.5 31.14 L 563.34375 29.7225 L 564.615 27.45 L 568.44 20.34 L 571.32 14.76 L 574.74 8.28 L 578.34 1.44 L 579.6 -0.9 L 583.56 -8.46 L 584.64 -10.44 L 584.865 -11.115 L 585.18 -11.7 L 586.8 -14.76 L 587.34 -16.02 L 588.42 -18 L 591.84 -24.66 L 592.92 -26.82 L 594.135 -29.475 L 594.43875 -30.22875 L 594.54 -30.6 L 594.48375 -30.8925 L 594.315 -31.23 L 594.03375 -31.6125 L 593.64 -32.04 L 593.46 -32.22 L 593.1 -32.94 L 592.74 -34.02 L 592.875 -34.425 L 593.28 -35.1 L 593.955 -36.045 L 594.9 -37.26 L 595.58625 -37.90125 L 596.385 -38.565 L 598.32 -39.96 L 598.7025 -40.1175 L 599.13 -40.41 L 599.6025 -40.8375 L 600.12 -41.4 L 603.72 -48.465 L 613.8 -68.58 L 619.02 -79.74 L 619.0875 -80.02125 L 619.29 -80.505 L 620.1 -82.08 L 621.72 -85.5 L 623.7 -90 L 624.42 -91.485 L 625.5 -94.14 L 625.86 -94.86 L 626.4 -96.12 L 626.85 -97.425 L 627.12 -98.46 L 627.57 -99.72 L 628.2 -102.06 L 628.427813 -103.120312 L 628.75125 -103.96125 L 628.948828 -104.299453 L 629.170313 -104.582813 L 629.415703 -104.811328 L 629.685 -104.985 L 629.978203 -105.103828 L 630.295313 -105.167812 L 630.636328 -105.176953 L 631.00125 -105.13125 L 631.802813 -104.875312 L 632.7 -104.4 L 633.109922 -104.183437 L 633.484688 -103.89375 L 633.824297 -103.530937 L 634.12875 -103.095 L 634.398047 -102.585938 L 634.632187 -102.00375 L 634.831172 -101.348438 L 634.995 -100.62 L 635.217188 -98.94375 L 635.29875 -96.975 L 635.239688 -94.71375 L 635.04 -92.16 L 633.895313 -89.265937 L 632.44125 -85.89375 L 630.677813 -82.043437 L 628.605 -77.715 L 626.222813 -72.908437 L 623.53125 -67.62375 L 620.530313 -61.860937 L 617.22 -55.62 L 616.753125 -54.72 L 616.3425 -53.82 L 615.988125 -52.92 L 615.69 -52.02 L 615.448125 -51.12 L 615.2625 -50.22 L 615.133125 -49.32 L 615.06 -48.42 L 616.635 -49.455 L 620.28 -52.02 L 633.78 -61.74 L 634.815 -62.46 L 635.76 -63.18 L 636.255 -63.63 L 636.66 -63.9 L 642.06 -68.04 L 645.615 -70.74 L 650.88 -74.52 L 651.24 -74.745 L 651.6 -75.06 L 654.12 -77.04 L 656.1 -78.66 L 657.855 -80.1 L 660.6 -82.26 L 663.84 -84.78 L 666.36 -86.76 L 667.845 -88.02 L 669.42 -89.28 L 671.85 -91.125 L 673.74 -92.7 L 674.235 -93.15 L 674.64 -93.42 L 676.44 -94.86 L 679.365 -97.38 L 684.18 -101.34 L 685.44 -102.42 L 687.78 -104.58 L 688.32 -105.0975 L 688.86 -105.75 L 689.4 -106.5375 L 689.94 -107.46 L 690.015938 -107.789062 L 690.15375 -108.14625 L 690.615 -108.945 L 691.32375 -109.85625 L 692.28 -110.88 L 692.505 -111.015 L 692.82 -111.06 L 693.14625 -111.2175 L 693.585 -111.33 L 694.13625 -111.3975 L 694.8 -111.42 L 695.41875 -111.20625 L 696.195 -110.745 L 697.12875 -110.03625 L 698.22 -109.08 L 698.6475 -108.2925 L 699.03 -107.37 L 699.3675 -106.3125 L 699.66 -105.12 L 699.62625 -104.59125 L 699.525 -104.085 L 699.35625 -103.60125 L 699.12 -103.14 L 697.89375 -101.82375 L 695.295 -99.315 L 691.32375 -95.61375 L 685.98 -90.72 L 683.145 -88.47 L 678.96 -84.96 L 678.42 -84.6 L 677.61 -83.86875 L 676.26 -82.755 L 671.94 -79.38 L 671.04 -78.615 L 669.78 -77.76 L 669.06 -77.085 L 668.34 -76.5 L 667.26 -75.735 L 666.18 -74.88 L 665.55 -74.295 L 665.1 -73.98 L 664.02 -73.08 L 661.5 -71.1 L 659.88 -70.02 L 658.395 -68.76 L 657.18 -67.86 L 656.01 -67.095 L 653.94 -65.52 L 652.905 -64.845 L 651.24 -63.54 L 650.52 -63.045 L 649.8 -62.64 L 637.02 -53.64 L 631.98 -50.4 L 629.505 -48.78 L 627.48 -47.52 L 625.5 -46.44 L 619.56 -42.93 L 610.02 -37.44 L 608.895 -36.855 L 607.32 -35.82 L 607.260938 -35.614687 L 607.35375 -35.26875 L 607.598438 -34.782187 L 607.995 -34.155 L 609.24375 -32.47875 L 611.1 -30.24 L 613.7325 -27.6525 L 619.29 -22.05 L 639.18 -1.8 L 642.186563 1.600313 L 645.08625 4.96125 L 647.879063 8.282813 L 650.565 11.565 L 653.144063 14.807812 L 655.61625 18.01125 L 657.981562 21.175313 L 660.24 24.3 L 662.085 26.73 L 663.66 28.98 L 663.975 29.34 L 664.2 29.7 L 664.77375 30.555 L 665.235 31.5 L 665.58375 32.535 L 665.82 33.66 L 665.5725 33.94125 L 665.19 34.245 L 664.02 34.92 L 662.67 33.885 L 659.34 31.14 L 659.16 30.69 L 658.98 30.06 L 658.904063 29.829375 L 658.67625 29.4075 L 657.765 27.99 L 656.24625 25.8075 L 654.12 22.86 L 653.22 21.78 L 652.14 20.7 L 651.34125 19.6875 L 649.665 17.73 L 643.68 10.98 L 642.203438 9.45 L 640.11375 7.38 L 634.095 1.62 L 625.62375 -6.3 L 614.7 -16.38 L 613.935 -17.01 L 613.08 -17.82 L 610.74 -19.8 L 608.90625 -21.285 L 606.825 -22.86 L 604.49625 -24.525 L 601.92 -26.28 L 601.647187 -26.240625 L 601.36875 -26.1225 L 601.084687 -25.925625 L 600.795 -25.65 L 600.19875 -24.8625 L 599.58 -23.76 L 599.13 -22.95 L 598.5 -21.6 L 597.645 -20.295 L 596.88 -18.9 L 594.54 -14.94 L 593.1 -12.24 L 592.065 -10.395 L 590.4 -7.74 L 588.6 -4.68 L 588.015 -3.6 L 587.34 -2.52 L 586.17 -0.18 L 584.82 2.16 L 583.56 4.14 L 582.435 6.03 L 580.5 9.54 L 576.045 17.235 L 567.72 31.32 L 567.196875 32.127187 L 566.6175 32.83875 L 565.981875 33.454687 L 565.29 33.975 L 564.541875 34.399687 L 563.7375 34.72875 L 562.876875 34.962187 L 561.96 35.1 Z" fill="#1f2933" data-layer-id="layer_customer_name"/>
    <path d="M 669.96 7.92 L 669.43125 7.66125 L 668.745 7.245 L 666.9 5.94 L 666.8325 5.67 L 666.81 5.22 L 666.9 3.78 L 667.17 1.62 L 667.62 -1.26 L 668.80125 -5.45625 L 670.545 -11.025 L 672.85125 -17.96625 L 675.72 -26.28 L 676.8 -29.16 L 677.52 -30.96 L 677.88 -31.59 L 678.24 -32.4 L 678.6 -33.12 L 678.87 -33.795 L 679.32 -34.74 L 679.365 -35.1 L 679.5 -35.46 L 679.86 -36.36 L 680.76 -38.52 L 683.82 -45.36 L 684.72 -47.16 L 685.62 -48.96 L 686.52 -50.76 L 686.565 -51.21 L 686.7 -51.48 L 688.005 -54.18 L 691.56 -61.2 L 693.54 -63.54 L 693.8775 -63.82125 L 694.35 -64.125 L 695.7 -64.8 L 696.209063 -64.769063 L 696.74625 -64.67625 L 697.311563 -64.521563 L 697.905 -64.305 L 699.17625 -63.68625 L 700.56 -62.82 L 701.7525 -61.86375 L 702.63 -60.975 L 702.950625 -60.555937 L 703.1925 -60.15375 L 703.355625 -59.768437 L 703.44 -59.4 L 703.33875 -58.82625 L 703.035 -58.185 L 702.52875 -57.47625 L 701.82 -56.7 L 701.775 -56.52 L 701.64 -56.34 L 700.335 -54.54 L 697.86 -50.94 L 697.32 -50.04 L 696.42 -48.42 L 693.855 -43.47 L 687.24 -30.42 L 686.52 -28.98 L 685.89 -27.495 L 685.44 -26.28 L 684.54 -24.12 L 684.675 -24.01875 L 684.9 -24.075 L 685.215 -24.28875 L 685.62 -24.66 L 686.295 -25.515 L 687.6 -27.36 L 688.08375 -27.9225 L 688.815 -28.89 L 691.02 -32.04 L 691.38 -32.58 L 691.92 -33.48 L 692.64 -34.56 L 694.62 -37.26 L 695.34 -38.34 L 696.06 -39.375 L 696.78 -40.32 L 697.455 -41.355 L 698.76 -43.02 L 698.985 -43.38 L 699.3 -43.74 L 700.155 -44.82 L 700.92 -45.9 L 702.6975 -47.93625 L 705.15 -50.445 L 708.2775 -53.42625 L 712.08 -56.88 L 712.468125 -57.031875 L 712.9125 -57.1275 L 713.413125 -57.166875 L 713.97 -57.15 L 715.2525 -56.9475 L 716.76 -56.52 L 717.271875 -56.213437 L 717.7275 -55.83375 L 718.126875 -55.380937 L 718.47 -54.855 L 718.756875 -54.255937 L 718.9875 -53.58375 L 719.161875 -52.838437 L 719.28 -52.02 L 719.161875 -51.809062 L 718.9875 -51.62625 L 718.756875 -51.471562 L 718.47 -51.345 L 717.7275 -51.17625 L 716.76 -51.12 L 716.04 -51.48 L 715.68 -51.525 L 715.32 -51.66 L 714.87 -51.53625 L 714.06 -51.165 L 711.36 -49.68 L 710.44875 -48.83625 L 708.615 -47.025 L 702.18 -40.5 L 701.92125 -40.0725 L 701.505 -39.51 L 700.2 -37.98 L 699.66 -37.35 L 698.76 -36.18 L 697.995 -35.01 L 696.06 -32.22 L 694.895625 -30.5775 L 693.4725 -28.44 L 689.85 -22.68 L 685.1925 -14.94 L 679.5 -5.22 L 677.7 -1.98 L 676.62 0 L 675.495 1.98 L 673.92 5.04 L 673.621875 5.47875 L 673.2675 5.895 L 672.856875 6.28875 L 672.39 6.66 L 671.2875 7.335 L 669.96 7.92 Z" fill="#1f2933" data-layer-id="layer_customer_name"/>
    <path d="M 725.22 0.18 L 724.455 -0.25875 L 723.42 -1.035 L 722.115 -2.14875 L 720.54 -3.6 L 720.211641 -4.135078 L 719.946562 -4.750312 L 719.744766 -5.445703 L 719.60625 -6.22125 L 719.531016 -7.076953 L 719.519063 -8.012812 L 719.570391 -9.028828 L 719.685 -10.125 L 720.104062 -12.557812 L 720.77625 -15.31125 L 721.701562 -18.385312 L 722.88 -21.78 L 723.5775 -23.74875 L 724.59 -26.415 L 727.56 -33.84 L 729.9 -38.61 L 733.68 -46.08 L 734.13 -46.89 L 734.76 -47.88 L 735.435 -49.14 L 736.02 -50.4 L 736.83 -51.885 L 738.18 -54.54 L 739.08 -56.16 L 739.98 -57.78 L 740.43 -58.55625 L 741.06 -59.265 L 741.87 -59.90625 L 742.86 -60.48 L 743.273438 -60.418125 L 743.79375 -60.2325 L 744.420937 -59.923125 L 745.155 -59.49 L 746.94375 -58.2525 L 749.16 -56.52 L 749.475 -56.075625 L 749.7 -55.6425 L 749.835 -55.220625 L 749.88 -54.81 L 749.835 -54.410625 L 749.7 -54.0225 L 749.475 -53.645625 L 749.16 -53.28 L 744.48 -46.8 L 742.32 -43.56 L 740.16 -40.14 L 739.08 -38.34 L 737.64 -36 L 734.76 -30.96 L 733.42125 -28.62 L 731.565 -25.02 L 729.19125 -20.16 L 726.3 -14.04 L 725.81625 -12.6675 L 725.265 -10.71 L 724.64625 -8.1675 L 723.96 -5.04 L 723.990937 -4.730625 L 724.08375 -4.4325 L 724.238437 -4.145625 L 724.455 -3.87 L 725.07375 -3.3525 L 725.94 -2.88 L 726.415312 -2.9475 L 727.12125 -3.15 L 729.225 -3.96 L 732.25125 -5.31 L 736.2 -7.2 L 740.34 -9.855 L 750.24 -16.38 L 753.12 -18.18 L 761.76 -23.76 L 762.525 -24.21 L 763.38 -24.84 L 764.64 -25.56 L 766.98 -27 L 768.06 -27.675 L 769.14 -28.26 L 773.46 -30.6 L 774.194062 -31.005 L 774.86625 -31.32 L 775.476562 -31.545 L 776.025 -31.68 L 776.511562 -31.725 L 776.93625 -31.68 L 777.299062 -31.545 L 777.6 -31.32 L 777.785625 -31.123125 L 777.8925 -30.8925 L 777.920625 -30.628125 L 777.87 -30.33 L 777.740625 -29.998125 L 777.5325 -29.6325 L 776.88 -28.8 L 773.28 -26.82 L 771.75 -25.83 L 770.4 -25.02 L 768.33 -23.76 L 764.1 -21.06 L 749.16 -11.34 L 744.795 -8.64 L 738.54 -4.86 L 737.82 -4.455 L 737.1 -3.96 L 734.6025 -2.55375 L 732.33 -1.395 L 730.2825 -0.48375 L 728.46 0.18 L 727.92 0.2475 L 727.2 0.27 L 725.22 0.18 Z" fill="#1f2933" data-layer-id="layer_customer_name"/>
    <path d="M 754.56 -73.08 L 753.615 -73.90125 L 753.24375 -74.320312 L 752.94 -74.745 L 752.70375 -75.175313 L 752.535 -75.61125 L 752.43375 -76.052813 L 752.4 -76.5 L 752.481562 -76.84875 L 752.72625 -77.445 L 753.705 -79.38 L 755.33625 -82.305 L 757.62 -86.22 L 757.940625 -86.149687 L 758.3625 -85.93875 L 758.885625 -85.587187 L 759.51 -85.095 L 761.0625 -83.68875 L 763.02 -81.72 L 763.2 -81.340312 L 763.29 -80.92125 L 763.29 -80.462812 L 763.2 -79.965 L 763.02 -79.427813 L 762.75 -78.85125 L 762.39 -78.235312 L 761.94 -77.58 L 761.0625 -76.8375 L 760.05 -75.87 L 758.9025 -74.6775 L 757.62 -73.26 L 757.414688 -73.099688 L 757.15875 -72.97875 L 756.495 -72.855 L 755.62875 -72.88875 L 754.56 -73.08 Z" fill="#1f2933" data-layer-id="layer_customer_name"/>
    <path d="M 842.22 -33.3 L 842.445 -33.04125 L 842.58 -32.625 L 842.625 -32.05125 L 842.58 -31.32 L 842.22 -31.23 L 841.5 -30.96 L 839.655 -30.5325 L 836.46 -29.61 L 831.915 -28.1925 L 826.02 -26.28 L 824.31 -25.695 L 821.7 -24.66 L 818.64 -23.4 L 811.62 -20.34 L 811.347187 -20.162812 L 811.06875 -19.90125 L 810.495 -19.125 L 809.89875 -18.01125 L 809.28 -16.56 L 809.28 -16.02 L 809.232187 -15.240937 L 809.08875 -14.34375 L 808.849687 -13.328437 L 808.515 -12.195 L 807.55875 -9.57375 L 806.22 -6.48 L 805.311562 -5.101875 L 804.29625 -3.7575 L 803.174062 -2.446875 L 801.945 -1.17 L 800.609062 0.073125 L 799.16625 1.2825 L 797.616562 2.458125 L 795.96 3.6 L 794.97 4.24125 L 793.44 5.085 L 791.37 6.13125 L 788.76 7.38 L 788.13 7.5375 L 786.96 7.65 L 785.25 7.7175 L 783 7.74 L 782.555625 7.529062 L 782.1225 7.25625 L 781.700625 6.921562 L 781.29 6.525 L 780.5025 5.54625 L 779.76 4.32 L 779.355 3.24 L 778.86 1.44 L 778.9725 0.66375 L 779.31 -0.405 L 779.8725 -1.76625 L 780.66 -3.42 L 781.45875 -4.3425 L 782.955 -5.85 L 785.14875 -7.9425 L 788.04 -10.62 L 789.525 -11.7225 L 792 -13.41 L 799.92 -18.54 L 801.36 -19.53 L 802.8 -20.7 L 802.7775 -20.894063 L 802.62 -21.11625 L 802.3275 -21.366563 L 801.9 -21.645 L 800.64 -22.28625 L 798.84 -23.04 L 797.68125 -23.2875 L 796.455 -23.49 L 795.16125 -23.6475 L 793.8 -23.76 L 790.875 -23.85 L 787.68 -23.76 L 785.295 -23.58 L 781.38 -23.4 L 780.823125 -23.380312 L 780.2325 -23.41125 L 778.95 -23.625 L 777.5325 -24.04125 L 775.98 -24.66 L 775.51875 -25.245 L 775.035 -26.1 L 774.52875 -27.225 L 774 -28.62 L 774.05625 -29.019375 L 774.225 -29.5875 L 774.9 -31.23 L 776.025 -33.5475 L 777.6 -36.54 L 778.201172 -37.184766 L 779.104687 -37.994062 L 780.310547 -38.967891 L 781.81875 -40.10625 L 785.742187 -42.876562 L 790.875 -46.305 L 797.217187 -50.391562 L 804.76875 -55.13625 L 813.529687 -60.539062 L 823.5 -66.6 L 824.056875 -66.366563 L 824.6475 -66.02625 L 825.271875 -65.579062 L 825.93 -65.025 L 826.621875 -64.364063 L 827.3475 -63.59625 L 828.9 -61.74 L 829.08 -61.25625 L 829.26 -60.525 L 829.62 -58.32 L 829.575 -57.735 L 829.44 -57.06 L 829.215 -56.295 L 828.9 -55.44 L 827.9325 -53.55 L 826.92 -51.84 L 825.8625 -50.31 L 824.76 -48.96 L 823.6125 -47.79 L 822.42 -46.8 L 821.1825 -45.99 L 819.9 -45.36 L 819.585 -45.225 L 819.36 -45.18 L 819.0675 -45.03375 L 818.73 -44.955 L 818.3475 -44.94375 L 817.92 -45 L 817.56 -45.30375 L 817.2 -45.855 L 816.84 -46.65375 L 816.48 -47.7 L 816.525 -47.925 L 816.66 -48.24 L 817.92 -50.76 L 818.505 -51.9525 L 819.18 -53.55 L 819.945 -55.5525 L 820.8 -57.96 L 820.76625 -58.14 L 820.665 -58.32 L 820.26 -58.68 L 819.963281 -58.617422 L 819.478125 -58.429688 L 817.9425 -57.67875 L 815.653125 -56.427187 L 812.61 -54.675 L 804.2625 -49.66875 L 792.9 -42.66 L 790.155 -40.1625 L 786.96 -36.99 L 783.315 -33.1425 L 779.22 -28.62 L 779.346562 -28.538438 L 779.72625 -28.47375 L 781.245 -28.395 L 783.77625 -28.38375 L 787.32 -28.44 L 788.1075 -28.51875 L 789.39 -28.575 L 793.44 -28.62 L 797.4 -28.62 L 800.1 -27.72 L 800.6625 -27.548437 L 801.27 -27.30375 L 802.62 -26.595 L 804.15 -25.59375 L 805.86 -24.3 L 806.09625 -24.0075 L 806.445 -23.67 L 807.48 -22.86 L 808.335 -23.13 L 810.54 -23.94 L 814.0275 -25.461562 L 817.47 -26.87625 L 820.8675 -28.184062 L 824.22 -29.385 L 827.5275 -30.479062 L 830.79 -31.46625 L 834.0075 -32.346562 L 837.18 -33.12 L 838.17 -33.26625 L 839.34 -33.345 L 840.69 -33.35625 L 842.22 -33.3 Z" fill="#1f2933" data-layer-id="layer_customer_name"/>
    <path d="M 798.12 -8.82 L 798.76125 -9.7425 L 799.425 -10.89 L 800.11125 -12.2625 L 800.82 -13.86 L 800.55 -14.04 L 800.1 -14.22 L 799.245 -13.69125 L 797.22 -12.285 L 789.66 -6.84 L 788.50125 -5.79375 L 787.185 -4.455 L 785.71125 -2.82375 L 784.08 -0.9 L 783.34875 0.39375 L 783.109687 0.930937 L 782.955 1.395 L 782.884687 1.785937 L 782.89875 2.10375 L 782.997187 2.348437 L 783.18 2.52 L 783.4725 2.671875 L 783.81 2.7675 L 784.1925 2.806875 L 784.62 2.79 L 785.61 2.5875 L 786.78 2.16 L 787.815 1.62 L 789.84 0.36 L 790.785 -0.46125 L 792.18 -1.845 L 794.025 -3.79125 L 796.32 -6.3 L 796.77 -6.975 L 797.76 -8.28 L 798.12 -8.82 Z" fill="#1f2933" data-layer-id="layer_customer_name"/>
    <path d="M 837.54 15.12 L 835.605 13.905 L 833.04 12.06 L 832.275 10.62 L 831.06 8.1 L 831.06 7.02 L 830.925 5.67 L 830.88 4.14 L 830.86875 2.37375 L 830.925 0.585 L 831.04875 -1.22625 L 831.24 -3.06 L 831.49875 -4.91625 L 831.825 -6.795 L 832.21875 -8.69625 L 832.68 -10.62 L 833.085 -11.925 L 833.58 -14.04 L 833.94 -15.3 L 834.3 -16.56 L 834.66 -18 L 835.02 -19.26 L 835.3575 -20.52 L 836.01 -22.68 L 838.26 -29.7 L 840.24 -35.46 L 842.04 -40.05 L 846 -49.86 L 846.72 -51.48 L 851.94 -62.46 L 852.255 -63.045 L 852.48 -63.72 L 853.065 -65.025 L 853.74 -66.78 L 853.711875 -66.94875 L 853.5375 -67.095 L 853.216875 -67.21875 L 852.75 -67.32 L 851.3775 -67.455 L 849.42 -67.5 L 847.26 -67.14 L 843.66 -66.42 L 841.32 -66.06 L 841.005 -65.925 L 840.78 -65.88 L 840.465 -66.06 L 839.88 -66.6 L 839.6775 -66.861562 L 839.52 -67.28625 L 839.4075 -67.874062 L 839.34 -68.625 L 839.34 -70.61625 L 839.52 -73.26 L 840.09375 -73.38375 L 841.635 -73.575 L 847.62 -74.16 L 849.24 -74.16 L 855.18 -74.475 L 856.8 -74.59875 L 857.52 -74.7 L 857.88 -74.93625 L 858.24 -75.285 L 858.6 -75.74625 L 858.96 -76.32 L 859.68 -77.4 L 860.94 -79.38 L 862.2 -81.72 L 867.6 -90.9 L 871.56 -97.2 L 872.92125 -99.09 L 874.485 -100.98 L 876.25125 -102.87 L 878.22 -104.76 L 878.390859 -104.797266 L 878.588437 -104.774062 L 879.06375 -104.54625 L 879.645937 -104.076562 L 880.335 -103.365 L 881.130937 -102.411563 L 882.03375 -101.21625 L 884.16 -98.1 L 884.025 -97.72875 L 883.62 -96.975 L 882 -94.32 L 880.74 -92.52 L 878.985 -89.775 L 875.88 -84.78 L 873 -80.28 L 871.92 -78.66 L 871.2 -77.31 L 870.975 -76.77 L 870.84 -76.32 L 870.795 -75.96 L 870.84 -75.69 L 870.975 -75.51 L 871.2 -75.42 L 871.66125 -75.34125 L 872.865 -75.285 L 877.5 -75.24 L 880.09875 -75.2625 L 883.215 -75.15 L 886.84875 -74.9025 L 891 -74.52 L 892.62 -73.8 L 892.7775 -73.4175 L 892.89 -72.81 L 892.9575 -71.9775 L 892.98 -70.92 L 892.8675 -70.754063 L 892.71 -70.61625 L 892.26 -70.425 L 891.63 -70.34625 L 890.82 -70.38 L 890.415 -70.56 L 889.74 -70.74 L 887.58 -71.1 L 881.64 -70.83 L 867.78 -70.02 L 867.540937 -69.94125 L 867.27375 -69.795 L 866.655 -69.3 L 865.92375 -68.535 L 865.08 -67.5 L 864.765 -66.96 L 864.54 -66.42 L 863.82 -65.16 L 862.425 -62.685 L 858.96 -56.34 L 858.915 -56.16 L 858.78 -55.98 L 858.24 -55.08 L 857.34 -53.46 L 852.3 -43.74 L 849.06 -36.54 L 842.94 -22.5 L 842.099062 -20.019375 L 841.28625 -17.1675 L 840.501562 -13.944375 L 839.745 -10.35 L 839.016562 -6.384375 L 838.31625 -2.0475 L 837.644062 2.660625 L 837 7.74 L 837.028125 8.668125 L 837.1125 9.4725 L 837.253125 10.153125 L 837.45 10.71 L 837.703125 11.143125 L 838.0125 11.4525 L 838.378125 11.638125 L 838.8 11.7 L 839.295 11.5425 L 840.24 11.07 L 843.48 9.18 L 844.635937 8.31375 L 846.30375 6.885 L 848.483437 4.89375 L 851.175 2.34 L 858.09375 -4.455 L 867.06 -13.5 L 870.64875 -17.1675 L 874.755 -21.15 L 879.37875 -25.4475 L 884.52 -30.06 L 885.074062 -30.434062 L 885.65625 -30.74625 L 886.266562 -30.996562 L 886.905 -31.185 L 887.571562 -31.311562 L 888.26625 -31.37625 L 888.989062 -31.379062 L 889.74 -31.32 L 889.965 -31.047187 L 890.1 -30.76875 L 890.145 -30.484687 L 890.1 -30.195 L 889.965 -29.899687 L 889.74 -29.59875 L 889.425 -29.292187 L 889.02 -28.98 L 888.255 -28.395 L 886.68 -27.36 L 884.98125 -25.7175 L 880.965 -21.69 L 865.98 -6.48 L 861.12 -1.26 L 857.475 2.7 L 851.94 8.46 L 851.079375 9.233437 L 850.1175 10.02375 L 847.89 11.655 L 845.2575 13.35375 L 842.22 15.12 L 841.455 15.255 L 840.42 15.3 L 839.115 15.255 L 837.54 15.12 Z" fill="#1f2933" data-layer-id="layer_customer_name"/>
    <path d="M 886.14 0.18 L 885.375 -0.25875 L 884.34 -1.035 L 883.035 -2.14875 L 881.46 -3.6 L 881.131641 -4.135078 L 880.866562 -4.750312 L 880.664766 -5.445703 L 880.52625 -6.22125 L 880.451016 -7.076953 L 880.439062 -8.012812 L 880.490391 -9.028828 L 880.605 -10.125 L 881.024062 -12.557812 L 881.69625 -15.31125 L 882.621562 -18.385312 L 883.8 -21.78 L 884.4975 -23.74875 L 885.51 -26.415 L 888.48 -33.84 L 890.82 -38.61 L 894.6 -46.08 L 895.05 -46.89 L 895.68 -47.88 L 896.355 -49.14 L 896.94 -50.4 L 897.75 -51.885 L 899.1 -54.54 L 900 -56.16 L 900.9 -57.78 L 901.35 -58.55625 L 901.98 -59.265 L 902.79 -59.90625 L 903.78 -60.48 L 904.193437 -60.418125 L 904.71375 -60.2325 L 905.340937 -59.923125 L 906.075 -59.49 L 907.86375 -58.2525 L 910.08 -56.52 L 910.395 -56.075625 L 910.62 -55.6425 L 910.755 -55.220625 L 910.8 -54.81 L 910.755 -54.410625 L 910.62 -54.0225 L 910.395 -53.645625 L 910.08 -53.28 L 905.4 -46.8 L 903.24 -43.56 L 901.08 -40.14 L 900 -38.34 L 898.56 -36 L 895.68 -30.96 L 894.34125 -28.62 L 892.485 -25.02 L 890.11125 -20.16 L 887.22 -14.04 L 886.73625 -12.6675 L 886.185 -10.71 L 885.56625 -8.1675 L 884.88 -5.04 L 884.910937 -4.730625 L 885.00375 -4.4325 L 885.158437 -4.145625 L 885.375 -3.87 L 885.99375 -3.3525 L 886.86 -2.88 L 887.335312 -2.9475 L 888.04125 -3.15 L 890.145 -3.96 L 893.17125 -5.31 L 897.12 -7.2 L 901.26 -9.855 L 911.16 -16.38 L 914.04 -18.18 L 922.68 -23.76 L 923.445 -24.21 L 924.3 -24.84 L 925.56 -25.56 L 927.9 -27 L 928.98 -27.675 L 930.06 -28.26 L 934.38 -30.6 L 935.114062 -31.005 L 935.78625 -31.32 L 936.396562 -31.545 L 936.945 -31.68 L 937.431562 -31.725 L 937.85625 -31.68 L 938.219062 -31.545 L 938.52 -31.32 L 938.705625 -31.123125 L 938.8125 -30.8925 L 938.840625 -30.628125 L 938.79 -30.33 L 938.660625 -29.998125 L 938.4525 -29.6325 L 937.8 -28.8 L 934.2 -26.82 L 932.67 -25.83 L 931.32 -25.02 L 929.25 -23.76 L 925.02 -21.06 L 910.08 -11.34 L 905.715 -8.64 L 899.46 -4.86 L 898.74 -4.455 L 898.02 -3.96 L 895.5225 -2.55375 L 893.25 -1.395 L 891.2025 -0.48375 L 889.38 0.18 L 888.84 0.2475 L 888.12 0.27 L 886.14 0.18 Z" fill="#1f2933" data-layer-id="layer_customer_name"/>
    <path d="M 915.48 -73.08 L 914.535 -73.90125 L 914.16375 -74.320312 L 913.86 -74.745 L 913.62375 -75.175313 L 913.455 -75.61125 L 913.35375 -76.052813 L 913.32 -76.5 L 913.401562 -76.84875 L 913.64625 -77.445 L 914.625 -79.38 L 916.25625 -82.305 L 918.54 -86.22 L 918.860625 -86.149687 L 919.2825 -85.93875 L 919.805625 -85.587187 L 920.43 -85.095 L 921.9825 -83.68875 L 923.94 -81.72 L 924.12 -81.340312 L 924.21 -80.92125 L 924.21 -80.462812 L 924.12 -79.965 L 923.94 -79.427813 L 923.67 -78.85125 L 923.31 -78.235312 L 922.86 -77.58 L 921.9825 -76.8375 L 920.97 -75.87 L 919.8225 -74.6775 L 918.54 -73.26 L 918.334687 -73.099688 L 918.07875 -72.97875 L 917.415 -72.855 L 916.54875 -72.88875 L 915.48 -73.08 Z" fill="#1f2933" data-layer-id="layer_customer_name"/>
    <path d="M 1019.16 -33.3 L 1019.404688 -33.060938 L 1019.59875 -32.79375 L 1019.742188 -32.498438 L 1019.835 -32.175 L 1019.877187 -31.823437 L 1019.86875 -31.44375 L 1019.7 -30.6 L 1019.162812 -30.428437 L 1018.36125 -30.09375 L 1015.965 -28.935 L 1012.51125 -27.12375 L 1008 -24.66 L 1005.615 -23.13 L 1000.98 -20.34 L 998.865 -19.08 L 995.76 -17.1 L 993.24 -15.48 L 988.92 -12.96 L 987.561563 -12.16125 L 986.09625 -11.475 L 984.524063 -10.90125 L 982.845 -10.44 L 981.059062 -10.09125 L 979.16625 -9.855 L 977.166562 -9.73125 L 975.06 -9.72 L 974.716875 -9.953437 L 974.3175 -10.29375 L 973.35 -11.295 L 972.1575 -12.72375 L 970.74 -14.58 L 970.588828 -15.228281 L 970.495312 -15.958125 L 970.459453 -16.769531 L 970.48125 -17.6625 L 970.697812 -19.693125 L 971.145 -22.05 L 971.822812 -24.733125 L 972.73125 -27.7425 L 973.870312 -31.078125 L 975.24 -34.74 L 976.64625 -38.35125 L 978.165 -42.525 L 979.79625 -47.26125 L 981.54 -52.56 L 981.6525 -53.47125 L 981.63 -54.405 L 981.4725 -55.36125 L 981.18 -56.34 L 981.059062 -56.4075 L 980.87625 -56.43 L 980.325 -56.34 L 979.52625 -56.07 L 978.48 -55.62 L 977.4225 -54.84375 L 975.51 -53.235 L 972.7425 -50.79375 L 969.12 -47.52 L 969.0525 -47.21625 L 969.03 -46.665 L 969.12 -44.82 L 969.1875 -44.17875 L 969.21 -43.155 L 969.12 -39.96 L 968.94 -38.25 L 968.76 -35.28 L 968.76 -35.1 L 968.625 -34.4925 L 968.4 -33.93 L 968.085 -33.4125 L 967.68 -32.94 L 967.33125 -33.03 L 966.825 -33.3 L 966.16125 -33.75 L 965.34 -34.38 L 964.98 -34.74 L 964.54125 -35.2125 L 964.125 -35.91 L 963.73125 -36.8325 L 963.36 -37.98 L 963.225 -38.57625 L 963 -39.105 L 962.685 -39.56625 L 962.28 -39.96 L 962.080312 -39.920625 L 961.84125 -39.8025 L 961.245 -39.33 L 960.49125 -38.5425 L 959.58 -37.44 L 959.265 -36.99 L 958.68 -36.36 L 957.06 -34.38 L 954.5625 -31.365 L 952.11 -28.26 L 949.7025 -25.065 L 947.34 -21.78 L 945.18 -18.9 L 943.2 -16.2 L 941.76 -14.22 L 940.14 -11.88 L 937.771875 -8.305312 L 935.6175 -5.14125 L 933.676875 -2.387812 L 931.95 -0.045 L 930.436875 1.887188 L 929.1375 3.40875 L 928.051875 4.519687 L 927.18 5.22 L 926.775 5.459062 L 926.37 5.63625 L 925.965 5.751562 L 925.56 5.805 L 925.155 5.796562 L 924.75 5.72625 L 924.345 5.594062 L 923.94 5.4 L 922.86 4.71375 L 922.3875 4.328437 L 921.96 3.915 L 921.5775 3.473437 L 921.24 3.00375 L 920.9475 2.505937 L 920.7 1.98 L 920.64375 1.65375 L 920.655 1.035 L 920.88 -1.08 L 921.102188 -2.162812 L 921.49875 -3.61125 L 922.069687 -5.425312 L 922.815 -7.605 L 924.82875 -13.06125 L 927.54 -19.98 L 929.34 -23.4 L 929.88 -24.66 L 930.915 -26.685 L 932.76 -29.88 L 935.415 -34.245 L 938.88 -39.78 L 940.372031 -41.761406 L 941.833125 -43.610625 L 943.263281 -45.327656 L 944.6625 -46.9125 L 946.030781 -48.365156 L 947.368125 -49.685625 L 948.674531 -50.873906 L 949.95 -51.93 L 951.194531 -52.853906 L 952.408125 -53.645625 L 953.590781 -54.305156 L 954.7425 -54.8325 L 955.863281 -55.227656 L 956.953125 -55.490625 L 958.012031 -55.621406 L 959.04 -55.62 L 959.549062 -55.58625 L 960.08625 -55.485 L 960.651562 -55.31625 L 961.245 -55.08 L 962.51625 -54.405 L 963.9 -53.46 L 964.54125 -53.055 L 965.205 -52.74 L 965.89125 -52.515 L 966.6 -52.38 L 967.5 -53.055 L 969.48 -54.72 L 971.7075 -56.77875 L 973.71 -58.455 L 975.4875 -59.74875 L 976.291875 -60.252187 L 977.04 -60.66 L 977.63625 -60.91875 L 978.345 -61.155 L 980.1 -61.56 L 980.488125 -61.517812 L 980.9325 -61.39125 L 981.433125 -61.180312 L 981.99 -60.885 L 983.2725 -60.04125 L 984.78 -58.86 L 985.179375 -58.407187 L 985.5675 -57.85875 L 985.944375 -57.214687 L 986.31 -56.475 L 987.0075 -54.70875 L 987.66 -52.56 L 987.58125 -51.66 L 987.345 -50.04 L 986.4 -44.64 L 986.144063 -43.441875 L 985.73625 -41.9175 L 984.465 -37.89 L 982.58625 -32.5575 L 980.1 -25.92 L 979.425 -24.04125 L 978.66 -21.645 L 977.805 -18.73125 L 976.86 -15.3 L 976.919062 -14.903437 L 977.09625 -14.61375 L 977.391562 -14.430937 L 977.805 -14.355 L 978.336563 -14.385937 L 978.98625 -14.52375 L 979.754063 -14.768437 L 980.64 -15.12 L 982.58625 -15.975 L 985.005 -17.1 L 991.26 -20.16 L 991.98 -20.655 L 992.7 -21.06 L 993.6 -21.6 L 994.05 -21.825 L 994.86 -22.32 L 997.56 -24.12 L 1000.485 -25.86375 L 1004.4 -28.035 L 1009.305 -30.63375 L 1015.2 -33.66 L 1015.576875 -33.7725 L 1015.9875 -33.84 L 1016.91 -33.84 L 1017.9675 -33.66 L 1019.16 -33.3 Z" fill="#1f2933" data-layer-id="layer_customer_name"/>
    <path d="M 959.76 -44.64 L 960.66 -45.77625 L 961.2 -46.665 L 961.335 -47.016562 L 961.38 -47.30625 L 961.335 -47.534062 L 961.2 -47.7 L 961.115625 -47.770312 L 960.9525 -47.80125 L 960.39 -47.745 L 959.5125 -47.53125 L 958.32 -47.16 L 956.950312 -46.29375 L 955.45125 -45.135 L 953.822812 -43.68375 L 952.065 -41.94 L 950.177812 -39.90375 L 948.16125 -37.575 L 946.015312 -34.95375 L 943.74 -32.04 L 943.02 -30.96 L 942.345 -30.09375 L 941.4 -28.755 L 938.7 -24.66 L 937.98 -23.4 L 937.26 -22.32 L 936.405 -20.82375 L 934.92 -17.955 L 930.06 -8.1 L 930.085312 -7.875 L 930.16125 -7.74 L 930.287812 -7.695 L 930.465 -7.74 L 930.97125 -8.1 L 931.68 -8.82 L 932.4 -9.675 L 933.48 -11.16 L 936.18 -14.76 L 937.395 -16.605 L 938.88 -18.54 L 939.6 -19.62 L 942.5475 -23.54625 L 946.89 -29.025 L 952.6275 -36.05625 L 959.76 -44.64 Z" fill="#1f2933" data-layer-id="layer_customer_name"/>
    <path d="M 1001.88 8.28 L 1001.07 7.8975 L 1000.44 7.47 L 999.99 6.9975 L 999.72 6.48 L 999.6525 6.28875 L 999.63 5.895 L 999.72 4.5 L 1000.0575 3.195 L 1000.89 0.54 L 1004.04 -8.82 L 1004.76 -10.44 L 1005.885 -13.41 L 1008.18 -19.08 L 1008.99 -21.06 L 1010.34 -24.12 L 1011.06 -25.83 L 1011.78 -27.36 L 1012.995 -30.285 L 1014.12 -32.58 L 1015.38 -35.46 L 1015.65 -36.19125 L 1016.28 -37.665 L 1018.62 -42.84 L 1021.32 -48.42 L 1023.03 -51.885 L 1024.92 -55.44 L 1026.9 -59.22 L 1028.247187 -61.675312 L 1029.49875 -63.82125 L 1030.654687 -65.657812 L 1031.715 -67.185 L 1032.679688 -68.402812 L 1033.54875 -69.31125 L 1034.322187 -69.910313 L 1034.673047 -70.093828 L 1035 -70.2 L 1035.315 -70.23375 L 1035.72 -70.155 L 1036.215 -69.96375 L 1036.8 -69.66 L 1038.24 -68.715 L 1040.04 -67.32 L 1040.225625 -66.988125 L 1040.3325 -66.5325 L 1040.360625 -65.953125 L 1040.31 -65.25 L 1040.180625 -64.423125 L 1039.9725 -63.4725 L 1039.32 -61.2 L 1039.185 -61.155 L 1039.14 -61.02 L 1033.02 -50.76 L 1031.4 -47.88 L 1026.18 -38.7 L 1024.2 -35.1 L 1020.96 -28.08 L 1020.737813 -27.376875 L 1020.70125 -26.9775 L 1020.752578 -26.891719 L 1020.850312 -26.881875 L 1021.185 -27.09 L 1021.705312 -27.601875 L 1022.41125 -28.4175 L 1024.38 -30.96 L 1027.44 -35.1 L 1027.8 -35.73 L 1028.16 -36.18 L 1029.864375 -38.30625 L 1031.8275 -40.545 L 1034.049375 -42.89625 L 1036.53 -45.36 L 1039.269375 -47.93625 L 1042.2675 -50.625 L 1045.524375 -53.42625 L 1049.04 -56.34 L 1049.408437 -56.309062 L 1049.79375 -56.21625 L 1050.615 -55.845 L 1051.50375 -55.22625 L 1052.46 -54.36 L 1053.585 -53.49375 L 1054.44 -52.695 L 1055.025 -51.96375 L 1055.21625 -51.623438 L 1055.34 -51.3 L 1055.39625 -50.99625 L 1055.385 -50.445 L 1055.16 -48.6 L 1054.8 -47.7 L 1053.63 -44.82 L 1052.28 -41.94 L 1051.875 -41.13 L 1051.38 -39.78 L 1051.02 -38.88 L 1050.3 -36.9 L 1049.04 -33.345 L 1046.34 -25.2 L 1045.8225 -22.89375 L 1045.35 -20.115 L 1044.9225 -16.86375 L 1044.54 -13.14 L 1044.495 -12.015 L 1044.54 -10.8 L 1044.675 -9.495 L 1044.9 -8.1 L 1045.26 -7.36875 L 1045.8 -6.615 L 1046.52 -5.83875 L 1047.42 -5.04 L 1048.249687 -4.8825 L 1049.20875 -4.86 L 1050.297188 -4.9725 L 1051.515 -5.22 L 1052.862187 -5.6025 L 1054.33875 -6.12 L 1055.944687 -6.7725 L 1057.68 -7.56 L 1059.98625 -8.955 L 1063.845 -11.52 L 1069.25625 -15.255 L 1076.22 -20.16 L 1087.56 -28.62 L 1088.333437 -29.165625 L 1089.12375 -29.6325 L 1089.930938 -30.020625 L 1090.755 -30.33 L 1091.595937 -30.560625 L 1092.45375 -30.7125 L 1093.328438 -30.785625 L 1094.22 -30.78 L 1094.402812 -30.5325 L 1094.50125 -30.24 L 1094.515312 -29.9025 L 1094.445 -29.52 L 1094.290313 -29.0925 L 1094.05125 -28.62 L 1093.32 -27.54 L 1092.751875 -27.264375 L 1091.8575 -26.7075 L 1089.09 -24.75 L 1085.0175 -21.6675 L 1079.64 -17.46 L 1075.32 -14.04 L 1074.96 -13.725 L 1074.6 -13.5 L 1073.79 -13.005 L 1072.8 -12.24 L 1069.56 -10.08 L 1067.813437 -9.002812 L 1065.90375 -7.93125 L 1063.830937 -6.865312 L 1061.595 -5.805 L 1059.195937 -4.750312 L 1056.63375 -3.70125 L 1053.908437 -2.657812 L 1051.02 -1.62 L 1050.37875 -1.665 L 1049.535 -1.8 L 1047.24 -2.34 L 1046.80125 -2.570625 L 1046.295 -2.9025 L 1045.08 -3.87 L 1043.595 -5.2425 L 1041.84 -7.02 L 1041.3675 -7.891875 L 1040.94 -8.7975 L 1040.5575 -9.736875 L 1040.22 -10.71 L 1039.9275 -11.716875 L 1039.68 -12.7575 L 1039.32 -14.94 L 1039.32 -16.875 L 1039.5 -19.98 L 1039.86 -24.255 L 1040.4 -29.7 L 1041.12 -34.2 L 1041.255 -34.785 L 1041.3 -35.46 L 1041.66 -37.08 L 1043.28 -42.66 L 1043.55 -43.875 L 1044 -45.36 L 1043.969063 -45.59625 L 1043.87625 -45.765 L 1043.721562 -45.86625 L 1043.505 -45.9 L 1043.226562 -45.86625 L 1042.88625 -45.765 L 1042.02 -45.36 L 1040.04 -43.18875 L 1036.62 -39.195 L 1031.76 -33.37875 L 1025.46 -25.74 L 1023.4575 -22.80375 L 1020.51 -18.315 L 1011.78 -4.68 L 1009.08 -0.18 L 1008.09 1.575 L 1006.2 4.68 L 1005.8175 5.326875 L 1005.39 5.9175 L 1004.9175 6.451875 L 1004.4 6.93 L 1003.8375 7.351875 L 1003.23 7.7175 L 1002.5775 8.026875 L 1001.88 8.28 Z" fill="#1f2933" data-layer-id="layer_customer_name"/>
    <path d="M 1079.64 8.28 L 1078.83 7.8975 L 1078.2 7.47 L 1077.75 6.9975 L 1077.48 6.48 L 1077.4125 6.28875 L 1077.39 5.895 L 1077.48 4.5 L 1077.8175 3.195 L 1078.65 0.54 L 1081.8 -8.82 L 1082.52 -10.44 L 1083.645 -13.41 L 1085.94 -19.08 L 1086.75 -21.06 L 1088.1 -24.12 L 1088.82 -25.83 L 1089.54 -27.36 L 1090.755 -30.285 L 1091.88 -32.58 L 1093.14 -35.46 L 1093.41 -36.19125 L 1094.04 -37.665 L 1096.38 -42.84 L 1099.08 -48.42 L 1100.79 -51.885 L 1102.68 -55.44 L 1104.66 -59.22 L 1106.007187 -61.675312 L 1107.25875 -63.82125 L 1108.414687 -65.657812 L 1109.475 -67.185 L 1110.439687 -68.402812 L 1111.30875 -69.31125 L 1112.082187 -69.910313 L 1112.433047 -70.093828 L 1112.76 -70.2 L 1113.075 -70.23375 L 1113.48 -70.155 L 1113.975 -69.96375 L 1114.56 -69.66 L 1116 -68.715 L 1117.8 -67.32 L 1117.985625 -66.988125 L 1118.0925 -66.5325 L 1118.120625 -65.953125 L 1118.07 -65.25 L 1117.940625 -64.423125 L 1117.7325 -63.4725 L 1117.08 -61.2 L 1116.945 -61.155 L 1116.9 -61.02 L 1110.78 -50.76 L 1109.16 -47.88 L 1103.94 -38.7 L 1101.96 -35.1 L 1098.72 -28.08 L 1098.497813 -27.376875 L 1098.46125 -26.9775 L 1098.512578 -26.891719 L 1098.610312 -26.881875 L 1098.945 -27.09 L 1099.465312 -27.601875 L 1100.17125 -28.4175 L 1102.14 -30.96 L 1105.2 -35.1 L 1105.56 -35.73 L 1105.92 -36.18 L 1107.624375 -38.30625 L 1109.5875 -40.545 L 1111.809375 -42.89625 L 1114.29 -45.36 L 1117.029375 -47.93625 L 1120.0275 -50.625 L 1123.284375 -53.42625 L 1126.8 -56.34 L 1127.168437 -56.309062 L 1127.55375 -56.21625 L 1128.375 -55.845 L 1129.26375 -55.22625 L 1130.22 -54.36 L 1131.345 -53.49375 L 1132.2 -52.695 L 1132.785 -51.96375 L 1132.97625 -51.623438 L 1133.1 -51.3 L 1133.15625 -50.99625 L 1133.145 -50.445 L 1132.92 -48.6 L 1132.56 -47.7 L 1131.39 -44.82 L 1130.04 -41.94 L 1129.635 -41.13 L 1129.14 -39.78 L 1128.78 -38.88 L 1128.06 -36.9 L 1126.8 -33.345 L 1124.1 -25.2 L 1123.5825 -22.89375 L 1123.11 -20.115 L 1122.6825 -16.86375 L 1122.3 -13.14 L 1122.255 -12.015 L 1122.3 -10.8 L 1122.435 -9.495 L 1122.66 -8.1 L 1123.02 -7.36875 L 1123.56 -6.615 L 1124.28 -5.83875 L 1125.18 -5.04 L 1126.009687 -4.8825 L 1126.96875 -4.86 L 1128.057188 -4.9725 L 1129.275 -5.22 L 1130.622187 -5.6025 L 1132.09875 -6.12 L 1133.704688 -6.7725 L 1135.44 -7.56 L 1137.74625 -8.955 L 1141.605 -11.52 L 1147.01625 -15.255 L 1153.98 -20.16 L 1165.32 -28.62 L 1166.093437 -29.165625 L 1166.88375 -29.6325 L 1167.690938 -30.020625 L 1168.515 -30.33 L 1169.355937 -30.560625 L 1170.21375 -30.7125 L 1171.088438 -30.785625 L 1171.98 -30.78 L 1172.162812 -30.5325 L 1172.26125 -30.24 L 1172.275312 -29.9025 L 1172.205 -29.52 L 1172.050313 -29.0925 L 1171.81125 -28.62 L 1171.08 -27.54 L 1170.511875 -27.264375 L 1169.6175 -26.7075 L 1166.85 -24.75 L 1162.7775 -21.6675 L 1157.4 -17.46 L 1153.08 -14.04 L 1152.72 -13.725 L 1152.36 -13.5 L 1151.55 -13.005 L 1150.56 -12.24 L 1147.32 -10.08 L 1145.573437 -9.002812 L 1143.66375 -7.93125 L 1141.590937 -6.865312 L 1139.355 -5.805 L 1136.955937 -4.750312 L 1134.39375 -3.70125 L 1131.668437 -2.657812 L 1128.78 -1.62 L 1128.13875 -1.665 L 1127.295 -1.8 L 1125 -2.34 L 1124.56125 -2.570625 L 1124.055 -2.9025 L 1122.84 -3.87 L 1121.355 -5.2425 L 1119.6 -7.02 L 1119.1275 -7.891875 L 1118.7 -8.7975 L 1118.3175 -9.736875 L 1117.98 -10.71 L 1117.6875 -11.716875 L 1117.44 -12.7575 L 1117.08 -14.94 L 1117.08 -16.875 L 1117.26 -19.98 L 1117.62 -24.255 L 1118.16 -29.7 L 1118.88 -34.2 L 1119.015 -34.785 L 1119.06 -35.46 L 1119.42 -37.08 L 1121.04 -42.66 L 1121.31 -43.875 L 1121.76 -45.36 L 1121.729063 -45.59625 L 1121.63625 -45.765 L 1121.481562 -45.86625 L 1121.265 -45.9 L 1120.986562 -45.86625 L 1120.64625 -45.765 L 1119.78 -45.36 L 1117.8 -43.18875 L 1114.38 -39.195 L 1109.52 -33.37875 L 1103.22 -25.74 L 1101.2175 -22.80375 L 1098.27 -18.315 L 1089.54 -4.68 L 1086.84 -0.18 L 1085.85 1.575 L 1083.96 4.68 L 1083.5775 5.326875 L 1083.15 5.9175 L 1082.6775 6.451875 L 1082.16 6.93 L 1081.5975 7.351875 L 1080.99 7.7175 L 1080.3375 8.026875 L 1079.64 8.28 Z" fill="#1f2933" data-layer-id="layer_customer_name"/>
    <path d="M 1254.42 -33.3 L 1254.664687 -33.060938 L 1254.85875 -32.79375 L 1255.002187 -32.498438 L 1255.095 -32.175 L 1255.137187 -31.823437 L 1255.12875 -31.44375 L 1254.96 -30.6 L 1254.422812 -30.428437 L 1253.62125 -30.09375 L 1251.225 -28.935 L 1247.77125 -27.12375 L 1243.26 -24.66 L 1240.875 -23.13 L 1236.24 -20.34 L 1234.125 -19.08 L 1231.02 -17.1 L 1228.5 -15.48 L 1224.18 -12.96 L 1222.821563 -12.16125 L 1221.35625 -11.475 L 1219.784062 -10.90125 L 1218.105 -10.44 L 1216.319062 -10.09125 L 1214.42625 -9.855 L 1212.426563 -9.73125 L 1210.32 -9.72 L 1209.976875 -9.953437 L 1209.5775 -10.29375 L 1208.61 -11.295 L 1207.4175 -12.72375 L 1206 -14.58 L 1205.848828 -15.228281 L 1205.755312 -15.958125 L 1205.719453 -16.769531 L 1205.74125 -17.6625 L 1205.957813 -19.693125 L 1206.405 -22.05 L 1207.082813 -24.733125 L 1207.99125 -27.7425 L 1209.130312 -31.078125 L 1210.5 -34.74 L 1211.90625 -38.35125 L 1213.425 -42.525 L 1215.05625 -47.26125 L 1216.8 -52.56 L 1216.9125 -53.47125 L 1216.89 -54.405 L 1216.7325 -55.36125 L 1216.44 -56.34 L 1216.319062 -56.4075 L 1216.13625 -56.43 L 1215.585 -56.34 L 1214.78625 -56.07 L 1213.74 -55.62 L 1212.6825 -54.84375 L 1210.77 -53.235 L 1208.0025 -50.79375 L 1204.38 -47.52 L 1204.3125 -47.21625 L 1204.29 -46.665 L 1204.38 -44.82 L 1204.4475 -44.17875 L 1204.47 -43.155 L 1204.38 -39.96 L 1204.2 -38.25 L 1204.02 -35.28 L 1204.02 -35.1 L 1203.885 -34.4925 L 1203.66 -33.93 L 1203.345 -33.4125 L 1202.94 -32.94 L 1202.59125 -33.03 L 1202.085 -33.3 L 1201.42125 -33.75 L 1200.6 -34.38 L 1200.24 -34.74 L 1199.80125 -35.2125 L 1199.385 -35.91 L 1198.99125 -36.8325 L 1198.62 -37.98 L 1198.485 -38.57625 L 1198.26 -39.105 L 1197.945 -39.56625 L 1197.54 -39.96 L 1197.340312 -39.920625 L 1197.10125 -39.8025 L 1196.505 -39.33 L 1195.75125 -38.5425 L 1194.84 -37.44 L 1194.525 -36.99 L 1193.94 -36.36 L 1192.32 -34.38 L 1189.8225 -31.365 L 1187.37 -28.26 L 1184.9625 -25.065 L 1182.6 -21.78 L 1180.44 -18.9 L 1178.46 -16.2 L 1177.02 -14.22 L 1175.4 -11.88 L 1173.031875 -8.305312 L 1170.8775 -5.14125 L 1168.936875 -2.387812 L 1167.21 -0.045 L 1165.696875 1.887188 L 1164.3975 3.40875 L 1163.311875 4.519687 L 1162.44 5.22 L 1162.035 5.459062 L 1161.63 5.63625 L 1161.225 5.751562 L 1160.82 5.805 L 1160.415 5.796562 L 1160.01 5.72625 L 1159.605 5.594062 L 1159.2 5.4 L 1158.12 4.71375 L 1157.6475 4.328437 L 1157.22 3.915 L 1156.8375 3.473437 L 1156.5 3.00375 L 1156.2075 2.505937 L 1155.96 1.98 L 1155.90375 1.65375 L 1155.915 1.035 L 1156.14 -1.08 L 1156.362187 -2.162812 L 1156.75875 -3.61125 L 1157.329687 -5.425312 L 1158.075 -7.605 L 1160.08875 -13.06125 L 1162.8 -19.98 L 1164.6 -23.4 L 1165.14 -24.66 L 1166.175 -26.685 L 1168.02 -29.88 L 1170.675 -34.245 L 1174.14 -39.78 L 1175.632031 -41.761406 L 1177.093125 -43.610625 L 1178.523281 -45.327656 L 1179.9225 -46.9125 L 1181.290781 -48.365156 L 1182.628125 -49.685625 L 1183.934531 -50.873906 L 1185.21 -51.93 L 1186.454531 -52.853906 L 1187.668125 -53.645625 L 1188.850781 -54.305156 L 1190.0025 -54.8325 L 1191.123281 -55.227656 L 1192.213125 -55.490625 L 1193.272031 -55.621406 L 1194.3 -55.62 L 1194.809062 -55.58625 L 1195.34625 -55.485 L 1195.911562 -55.31625 L 1196.505 -55.08 L 1197.77625 -54.405 L 1199.16 -53.46 L 1199.80125 -53.055 L 1200.465 -52.74 L 1201.15125 -52.515 L 1201.86 -52.38 L 1202.76 -53.055 L 1204.74 -54.72 L 1206.9675 -56.77875 L 1208.97 -58.455 L 1210.7475 -59.74875 L 1211.551875 -60.252187 L 1212.3 -60.66 L 1212.89625 -60.91875 L 1213.605 -61.155 L 1215.36 -61.56 L 1215.748125 -61.517812 L 1216.1925 -61.39125 L 1216.693125 -61.180312 L 1217.25 -60.885 L 1218.5325 -60.04125 L 1220.04 -58.86 L 1220.439375 -58.407187 L 1220.8275 -57.85875 L 1221.204375 -57.214687 L 1221.57 -56.475 L 1222.2675 -54.70875 L 1222.92 -52.56 L 1222.84125 -51.66 L 1222.605 -50.04 L 1221.66 -44.64 L 1221.404063 -43.441875 L 1220.99625 -41.9175 L 1219.725 -37.89 L 1217.84625 -32.5575 L 1215.36 -25.92 L 1214.685 -24.04125 L 1213.92 -21.645 L 1213.065 -18.73125 L 1212.12 -15.3 L 1212.179062 -14.903437 L 1212.35625 -14.61375 L 1212.651562 -14.430937 L 1213.065 -14.355 L 1213.596562 -14.385937 L 1214.24625 -14.52375 L 1215.014062 -14.768437 L 1215.9 -15.12 L 1217.84625 -15.975 L 1220.265 -17.1 L 1226.52 -20.16 L 1227.24 -20.655 L 1227.96 -21.06 L 1228.86 -21.6 L 1229.31 -21.825 L 1230.12 -22.32 L 1232.82 -24.12 L 1235.745 -25.86375 L 1239.66 -28.035 L 1244.565 -30.63375 L 1250.46 -33.66 L 1250.836875 -33.7725 L 1251.2475 -33.84 L 1252.17 -33.84 L 1253.2275 -33.66 L 1254.42 -33.3 Z" fill="#1f2933" data-layer-id="layer_customer_name"/>
    <path d="M 1195.02 -44.64 L 1195.92 -45.77625 L 1196.46 -46.665 L 1196.595 -47.016562 L 1196.64 -47.30625 L 1196.595 -47.534062 L 1196.46 -47.7 L 1196.375625 -47.770312 L 1196.2125 -47.80125 L 1195.65 -47.745 L 1194.7725 -47.53125 L 1193.58 -47.16 L 1192.210312 -46.29375 L 1190.71125 -45.135 L 1189.082813 -43.68375 L 1187.325 -41.94 L 1185.437813 -39.90375 L 1183.42125 -37.575 L 1181.275312 -34.95375 L 1179 -32.04 L 1178.28 -30.96 L 1177.605 -30.09375 L 1176.66 -28.755 L 1173.96 -24.66 L 1173.24 -23.4 L 1172.52 -22.32 L 1171.665 -20.82375 L 1170.18 -17.955 L 1165.32 -8.1 L 1165.345312 -7.875 L 1165.42125 -7.74 L 1165.547812 -7.695 L 1165.725 -7.74 L 1166.23125 -8.1 L 1166.94 -8.82 L 1167.66 -9.675 L 1168.74 -11.16 L 1171.44 -14.76 L 1172.655 -16.605 L 1174.14 -18.54 L 1174.86 -19.62 L 1177.8075 -23.54625 L 1182.15 -29.025 L 1187.8875 -36.05625 L 1195.02 -44.64 Z" fill="#1f2933" data-layer-id="layer_customer_name"/>
  </g>
</svg>
